<svg width="2182" height="618" viewBox="0 0 2182 618" fill="none" xmlns="http://www.w3.org/2000/svg">
<path d="M123.9 231.12L118.02 384H12.6L31.92 69H163.38L202.44 229.44H206.22L245.28 69H377.16L396.06 384H290.64L284.76 231.12H281.4L242.76 384H165.9L126.84 231.12H123.9ZM635.316 192.06V265.14H534.516V303.36H657.996V384H433.716V69H655.476L642.876 149.64H534.516V192.06H635.316ZM803.627 247.08H801.527V384H700.727V69H801.527V197.52H803.627C803.907 192.48 804.467 188 805.307 184.08C806.147 179.88 807.267 176.24 808.667 173.16L857.807 69H967.007L891.407 223.56L969.527 384H860.327L808.667 271.02C807.267 267.94 806.147 264.44 805.307 260.52C804.467 256.6 803.907 252.12 803.627 247.08ZM1223.46 384H1175.46V331H1139.46V384H1091.46V234H1139.46V287H1175.46V234H1223.46V384ZM1242.72 324C1242.72 302.533 1247.72 286.6 1257.72 276.2C1267.72 265.667 1283.92 260.4 1306.32 260.4C1328.72 260.4 1344.92 265.667 1354.92 276.2C1364.92 286.6 1369.92 302.533 1369.92 324C1369.92 345.467 1364.92 361.467 1354.92 372C1344.92 382.4 1328.72 387.6 1306.32 387.6C1284.45 387.6 1268.38 382.467 1258.12 372.2C1247.85 361.933 1242.72 345.867 1242.72 324ZM1294.32 305.6V352.6H1301.72C1307.58 352.6 1311.78 352 1314.32 350.8C1316.98 349.6 1318.32 346.8 1318.32 342.4V295.4H1310.92C1305.05 295.4 1300.78 296 1298.12 297.2C1295.58 298.4 1294.32 301.2 1294.32 305.6ZM1456.32 384V300H1452.92C1450.79 300 1448.72 300.067 1446.72 300.2C1444.85 300.333 1443.19 300.8 1441.72 301.6C1440.25 302.267 1439.12 303.333 1438.32 304.8C1437.52 306.267 1437.12 308.333 1437.12 311V384H1389.12V264H1413.12L1423.92 275C1433.65 265.267 1446.45 260.4 1462.32 260.4C1478.05 260.4 1489.52 263.667 1496.72 270.2C1506.72 263.667 1518.05 260.4 1530.72 260.4C1543.65 260.4 1553.65 262.867 1560.72 267.8C1567.92 272.6 1571.52 279.333 1571.52 288V384H1523.52V300H1520.12C1518.25 300 1516.39 300.067 1514.52 300.2C1512.65 300.333 1510.99 300.733 1509.52 301.4C1508.19 301.933 1506.99 302.867 1505.92 304.2C1504.99 305.533 1504.45 307.333 1504.32 309.6V384H1456.32ZM1641 343.2V351.6C1643.4 351.867 1645.8 352.067 1648.2 352.2C1650.6 352.333 1653 352.4 1655.4 352.4C1670.33 352.4 1685.4 350 1700.6 345.2L1706.2 380.4C1688.2 385.2 1670.46 387.6 1653 387.6C1630.6 387.6 1614.4 382.4 1604.4 372C1594.4 361.467 1589.4 345.467 1589.4 324C1589.4 302.533 1594.4 286.6 1604.4 276.2C1614.53 265.667 1630.73 260.4 1653 260.4C1664.2 260.4 1673.53 261.133 1681 262.6C1688.46 263.933 1694.46 266.267 1699 269.6C1703.66 272.8 1706.93 277.2 1708.8 282.8C1710.8 288.267 1711.8 295.2 1711.8 303.6C1711.8 310.533 1710.6 316.533 1708.2 321.6C1705.93 326.533 1702.06 330.6 1696.6 333.8C1691.13 337 1683.86 339.4 1674.8 341C1665.73 342.467 1654.46 343.2 1641 343.2ZM1641 305.6V315.4H1650.8C1656.66 315.4 1660.86 314.8 1663.4 313.6C1666.06 312.4 1667.4 309.6 1667.4 305.2V295.4H1657.6C1651.73 295.4 1647.46 296 1644.8 297.2C1642.26 298.4 1641 301.2 1641 305.6ZM1741.34 268.8C1751.61 263.2 1765.68 260.4 1783.54 260.4C1801.54 260.4 1818.01 262.867 1832.94 267.8L1827.34 300.4C1821.08 298.533 1814.88 297.2 1808.74 296.4C1802.61 295.6 1796.34 295.2 1789.94 295.2C1788.08 295.2 1785.74 295.267 1782.94 295.4C1780.28 295.533 1777.21 295.8 1773.74 296.2V303.8C1781.08 303.8 1788.61 304.2 1796.34 305C1804.08 305.667 1811.08 307.4 1817.34 310.2C1823.74 312.867 1828.94 316.933 1832.94 322.4C1837.08 327.733 1839.14 335.067 1839.14 344.4C1839.14 350.933 1838.41 356.8 1836.94 362C1835.48 367.067 1833.21 371.133 1830.14 374.2C1826.94 377.267 1823.61 379.733 1820.14 381.6C1816.81 383.467 1812.41 384.8 1806.94 385.6C1802.68 386.267 1798.08 386.733 1793.14 387C1788.34 387.4 1783.14 387.6 1777.54 387.6C1757.94 387.6 1740.01 385.267 1723.74 380.6L1729.74 346.6C1736.54 348.6 1743.54 350.133 1750.74 351.2C1757.94 352.267 1765.48 352.8 1773.34 352.8C1776.94 352.8 1780.34 352.733 1783.54 352.6C1786.88 352.467 1790.08 352.2 1793.14 351.8V344.2C1780.34 344.2 1769.61 343.4 1760.94 341.8C1752.41 340.067 1745.48 337.467 1740.14 334C1734.94 330.533 1731.21 326 1728.94 320.4C1726.81 314.8 1725.74 308.133 1725.74 300.4C1725.74 284.933 1730.94 274.4 1741.34 268.8Z" fill="white"/>
<path d="M19.575 580V570.575H51.185C57.7583 570.575 62.93 568.738 66.7 565.065C70.47 561.392 72.355 556.8 72.355 551.29C72.355 547.713 71.5333 544.475 69.89 541.575C68.2467 538.675 65.8783 536.403 62.785 534.76C59.7883 533.02 56.2117 532.15 52.055 532.15H19.575V522.87H50.46C55.8733 522.87 60.1267 521.42 63.22 518.52C66.41 515.62 68.005 511.512 68.005 506.195C68.005 500.878 66.3133 496.77 62.93 493.87C59.5467 490.97 55.0033 489.52 49.3 489.52H19.575V480.24H49.59C55.7767 480.24 61.045 481.352 65.395 483.575C69.745 485.798 73.0317 488.795 75.255 492.565C77.4783 496.335 78.59 500.588 78.59 505.325C78.59 510.932 77.14 515.765 74.24 519.825C71.34 523.788 67.0867 526.833 61.48 528.96L62.495 525.48C68.9717 527.51 73.9983 530.845 77.575 535.485C81.2483 540.125 83.085 545.635 83.085 552.015C83.085 557.332 81.78 562.117 79.17 566.37C76.6567 570.527 72.935 573.862 68.005 576.375C63.1717 578.792 57.3233 580 50.46 580H19.575ZM12.76 580V480.24H23.345V580H12.76ZM139.78 581.45C132.53 581.45 126.053 579.855 120.35 576.665C114.743 573.378 110.297 568.932 107.01 563.325C103.723 557.622 102.08 551.242 102.08 544.185V480.24H112.81V543.605C112.81 549.212 113.97 554.093 116.29 558.25C118.61 562.407 121.8 565.597 125.86 567.82C130.017 570.043 134.657 571.155 139.78 571.155C144.903 571.155 149.447 570.043 153.41 567.82C157.47 565.597 160.66 562.455 162.98 558.395C165.397 554.238 166.605 549.357 166.605 543.75V480.24H177.19V544.33C177.19 551.387 175.547 557.718 172.26 563.325C169.07 568.932 164.623 573.378 158.92 576.665C153.313 579.855 146.933 581.45 139.78 581.45ZM201.373 580V480.24H211.958V580H201.373ZM237.482 580V480.24H248.067V580H237.482ZM244.442 580V570.285H299.397V580H244.442ZM331.305 580V482.995H342.035V580H331.305ZM296.215 489.955V480.24H377.125V489.955H296.215ZM449.542 580V482.995H460.272V580H449.542ZM414.452 489.955V480.24H495.362V489.955H414.452ZM550.342 581.45C543.285 581.45 536.712 580.145 530.622 577.535C524.629 574.828 519.36 571.155 514.817 566.515C510.274 561.778 506.697 556.317 504.087 550.13C501.574 543.847 500.317 537.128 500.317 529.975C500.317 522.725 501.574 516.007 504.087 509.82C506.6 503.633 510.129 498.22 514.672 493.58C519.215 488.94 524.484 485.315 530.477 482.705C536.47 480.095 542.995 478.79 550.052 478.79C557.109 478.79 563.634 480.095 569.627 482.705C575.717 485.315 581.034 488.94 585.577 493.58C590.12 498.22 593.649 503.682 596.162 509.965C598.675 516.152 599.932 522.87 599.932 530.12C599.932 537.273 598.675 543.992 596.162 550.275C593.649 556.462 590.12 561.875 585.577 566.515C581.13 571.155 575.91 574.828 569.917 577.535C563.924 580.145 557.399 581.45 550.342 581.45ZM550.052 571.155C557.592 571.155 564.262 569.367 570.062 565.79C575.959 562.213 580.55 557.332 583.837 551.145C587.22 544.958 588.912 537.902 588.912 529.975C588.912 524.078 587.945 518.665 586.012 513.735C584.079 508.708 581.372 504.358 577.892 500.685C574.412 496.915 570.304 494.015 565.567 491.985C560.927 489.955 555.755 488.94 550.052 488.94C542.609 488.94 535.939 490.728 530.042 494.305C524.242 497.785 519.65 502.618 516.267 508.805C512.98 514.992 511.337 522.048 511.337 529.975C511.337 535.872 512.304 541.333 514.237 546.36C516.17 551.387 518.877 555.785 522.357 559.555C525.837 563.228 529.945 566.08 534.682 568.11C539.419 570.14 544.542 571.155 550.052 571.155ZM651.666 580V480.24H662.251V580H651.666ZM658.626 580V570.285H713.581V580H658.626ZM720.594 580L761.484 480.24H769.459L809.915 580H798.459L763.224 491.84H767.429L731.904 580H720.594ZM739.299 554.045V544.62H791.499V554.045H739.299ZM851.262 581.45C843.529 581.45 836.859 580 831.252 577.1C825.645 574.103 820.715 569.947 816.462 564.63L823.857 557.38C827.24 562.117 831.155 565.645 835.602 567.965C840.145 570.285 845.51 571.445 851.697 571.445C858.077 571.445 863.249 569.995 867.212 567.095C871.175 564.195 873.157 560.183 873.157 555.06C873.157 551.097 872.239 547.858 870.402 545.345C868.565 542.735 866.149 540.657 863.152 539.11C860.252 537.467 857.014 536.017 853.437 534.76C849.86 533.503 846.284 532.198 842.707 530.845C839.227 529.395 835.989 527.607 832.992 525.48C829.995 523.353 827.579 520.647 825.742 517.36C824.002 514.073 823.132 509.868 823.132 504.745C823.132 499.332 824.437 494.692 827.047 490.825C829.657 486.958 833.234 484.01 837.777 481.98C842.32 479.853 847.492 478.79 853.292 478.79C859.769 478.79 865.52 480.047 870.547 482.56C875.67 485.073 879.924 488.457 883.307 492.71L876.057 499.96C872.964 496.287 869.58 493.483 865.907 491.55C862.234 489.617 857.932 488.65 853.002 488.65C847.202 488.65 842.562 490.003 839.082 492.71C835.602 495.417 833.862 499.187 833.862 504.02C833.862 507.79 834.732 510.835 836.472 513.155C838.309 515.475 840.725 517.408 843.722 518.955C846.719 520.502 849.957 521.903 853.437 523.16C857.014 524.32 860.59 525.625 864.167 527.075C867.744 528.525 870.982 530.362 873.882 532.585C876.879 534.808 879.295 537.66 881.132 541.14C882.969 544.523 883.887 548.873 883.887 554.19C883.887 562.793 880.939 569.512 875.042 574.345C869.242 579.082 861.315 581.45 851.262 581.45ZM926.598 580V482.995H937.328V580H926.598ZM891.508 489.955V480.24H972.418V489.955H891.508Z" fill="white"/>
</svg>
