<svg width="670" height="107" viewBox="0 0 670 107" fill="none" xmlns="http://www.w3.org/2000/svg">
<path d="M182.962 0C217.043 19.5505 250.694 41.529 284.685 61.284C281.236 66.599 277.955 72.534 274.772 78.059C267.141 73.159 259.583 68.789 251.751 64.239C251.569 78.279 251.713 92.624 251.705 106.684L233.378 106.724L233.383 53.199L209.833 38.979L182.994 22.689C176.364 27.189 167.548 32.0665 160.649 36.4165C156.053 39.314 146.561 45.239 141.928 47.349C137.59 45.259 130.714 40.839 126.475 38.238C118.013 32.9875 109.496 27.826 100.925 22.7545C70.746 41.449 39.805 59.329 9.935 78.434C7.491 73.664 2.846 66.359 0 61.439C2.794 60.164 8.29751 56.594 11.1325 54.869L31.8085 42.259L100.974 0.185516C105.447 1.41502 135.633 20.852 141.864 24.6495C144.751 23.2875 148.332 21.0845 151.08 19.4C161.666 12.9115 172.389 6.4905 182.962 0Z" fill="white"/>
<path d="M100.425 34.2428C103.596 35.5858 113.218 41.7793 116.497 43.8243C124.938 49.0793 133.459 54.1993 142.058 59.1893C144.441 57.8493 146.916 56.3143 149.234 54.8443C160.242 47.8693 171.887 41.5743 182.588 34.1543C186.892 36.3038 193.548 40.7793 197.883 43.4443L225.529 60.1943C225.307 67.5693 225.209 74.9493 225.235 82.3293C213.479 76.5593 194.647 64.6943 183.094 57.4893C174.8 61.6943 159.637 71.5893 151.332 76.7893C148.281 78.7893 145.388 80.4343 142.214 82.2393C129.687 75.4443 112.117 62.9993 100.226 57.5993C85.9498 65.1793 65.8768 78.4943 51.5633 87.2893C51.2793 93.5843 51.5633 100.184 51.2963 106.749C44.9358 106.669 38.5748 106.694 32.2158 106.834C32.2188 96.6093 32.3423 86.1393 31.9668 75.9443C54.0383 61.8043 78.2233 48.8193 100.425 34.2428Z" fill="#F86106"/>
<path d="M349.559 16.4643L361.789 16.3203L361.784 60.8198C358.099 60.6898 353.314 61.8448 350.939 59.7498L350.834 57.3598L350.739 37.9753C347.729 45.4748 344.659 53.4798 341.34 60.7998L332.107 60.7798C329.746 54.0548 326.007 44.1948 323.188 37.7888C322.991 45.2798 323.154 53.4048 323.164 60.9448C319.576 60.8798 315.987 60.8498 312.398 60.8598C312.147 46.1848 312.298 31.1253 312.285 16.4218C316.511 16.3508 320.897 16.4223 325.137 16.4318C326.545 20.6358 335.376 42.2498 337.185 45.7548C340.58 36.2513 346.744 25.1403 349.559 16.4643Z" fill="white"/>
<path d="M543.362 27.3028C545.462 27.2788 552.727 26.8389 553.932 27.8779C553.942 29.2084 553.872 29.6254 554.237 30.9159C557.062 30.8819 559.727 26.9169 564.467 27.0784C569.387 27.2454 569.422 28.2779 573.037 31.4224C573.147 31.5189 574.302 32.4683 574.327 32.4513C578.442 29.7303 580.202 27.1994 585.357 27.0054C597.312 26.5549 598.622 37.7458 598.347 47.0738C598.222 51.4088 598.262 56.3689 598.202 60.8739L587.277 60.7688C587.237 54.8438 587.767 48.6089 587.227 42.7439C586.932 39.6074 586.187 38.5924 583.827 36.7659C572.837 36.1989 576.192 52.7488 576.167 60.7838L565.182 60.6488C565.122 54.8288 566.977 42.5538 562.942 38.0528C561.302 36.4038 557.177 36.6939 556.032 38.6504C552.927 43.9439 554.177 54.6688 554.242 60.7888C550.592 60.7038 546.937 60.7989 543.287 60.8639L543.362 27.3028Z" fill="white"/>
<path d="M487.009 16.3929L498.244 16.3359C498.174 31.1389 498.209 45.9399 498.344 60.7449L486.869 60.7599L486.849 42.6899L470.609 42.5449C470.469 48.6199 470.409 54.6999 470.419 60.7799L459.754 60.825L459.774 16.4104L470.594 16.4059C470.454 22.4474 470.409 27.8079 470.584 33.8494L486.999 33.8409C486.829 28.0259 486.834 22.2074 487.009 16.3929Z" fill="white"/>
<path d="M519.809 26.7249C529.374 26.1529 537.599 33.4219 538.209 42.9844C538.814 52.5444 531.579 60.7944 522.019 61.4394C512.409 62.0894 504.104 54.8044 503.489 45.1894C502.879 35.5794 510.194 27.2999 519.809 26.7249Z" fill="white"/>
<path d="M519.323 36.7875C528.413 35.588 530.278 46.6595 522.803 51.6945C512.753 51.4495 511.858 41.3595 519.323 36.7875Z" fill="black"/>
<path d="M369.828 16.291C378.613 16.413 387.568 16.326 396.368 16.327C396.508 19.3025 396.608 22.2795 396.678 25.257C391.558 25.4685 386.098 25.503 380.953 25.614C381.018 28.4255 381.028 31.2965 381.063 34.1135C385.173 34.2465 389.653 34.1515 393.793 34.1455L393.823 42.335L380.853 42.67L380.988 46.995C380.908 49.305 380.548 49.255 381.488 50.97C384.658 52.69 392.158 51.78 396.653 51.96C396.258 55.375 396.338 57.505 396.423 60.935C388.018 60.495 378.268 60.72 369.758 60.725L369.828 16.291Z" fill="white"/>
<path d="M428.617 16.5111L441.937 16.2461C436.657 24.0066 431.342 31.2011 426.057 39.1766L430.017 44.1101C426.467 45.0951 421.637 44.8401 417.742 45.0101C417.027 44.0401 416.552 43.5301 415.727 42.6451C415.332 43.2151 415.597 58.8201 415.587 60.8051C411.887 60.8401 408.057 60.7501 404.347 60.7151C403.942 46.5451 404.152 30.6546 404.267 16.3921C408.052 16.5291 411.842 16.5516 415.627 16.4596C415.722 22.9076 415.707 29.3561 415.572 35.8036C419.547 30.7296 424.932 22.1231 428.617 16.5111Z" fill="white"/>
<path d="M619.968 26.9473C632.588 27.3218 636.933 35.4458 636.568 47.0453C631.933 46.8403 618.588 46.1803 614.723 47.4953C613.663 56.8453 629.628 46.9502 635.193 50.0952L635.308 51.4803C627.963 67.3003 604.343 62.9953 603.198 45.7403C602.463 34.6178 609.068 27.8128 619.968 26.9473Z" fill="white"/>
<path d="M618.113 35.7051C621.323 35.9561 623.863 36.5786 624.903 39.9341L624.263 40.7121L622.373 40.8336C620.163 40.8786 615.903 41.5886 615.033 39.3326C615.743 37.5221 616.648 36.9811 618.113 35.7051Z" fill="black"/>
<path d="M653.303 26.9023C658.413 26.9733 671.523 30.4988 668.318 37.4998C666.373 38.4128 660.398 38.0998 658.068 38.0118C656.578 36.1668 656.008 35.0213 653.918 34.4088C652.283 35.0023 651.423 36.1393 651.603 37.8713C656.568 43.3943 674.793 40.0974 667.608 55.9494C666.093 59.2894 660.118 60.6743 656.833 61.2043C650.818 61.1543 639.133 58.0694 640.913 49.8994C642.708 49.3444 648.108 49.4843 650.313 49.4743C652.073 52.3943 653.353 53.8894 657.043 52.5244C658.318 51.0894 658.058 51.8894 657.983 50.0894C654.698 45.6644 641.388 46.8693 640.558 39.9348C639.523 31.2548 645.538 27.8218 653.303 26.9023Z" fill="white"/>
<path d="M430.017 44.1094C434.207 49.8544 438.177 55.2344 442.602 60.7894L428.162 60.7544C424.712 55.6744 420.867 50.2544 417.742 45.0094C421.637 44.8394 426.467 45.0944 430.017 44.1094Z" fill="white"/>
<path d="M440.398 80.4051C444.528 79.9651 448.263 82.8901 448.833 87.0051C449.398 91.1201 446.598 94.9452 442.503 95.6402C439.733 96.1152 436.933 95.0401 435.188 92.8451C433.443 90.6451 433.028 87.6751 434.113 85.0851C435.198 82.4951 437.608 80.7051 440.398 80.4051Z" fill="white"/>
<path d="M439.998 84.1541C442.093 83.4791 444.348 84.5741 445.118 86.6391C445.893 88.7041 444.903 91.0091 442.878 91.8741C441.478 92.4691 439.868 92.2491 438.683 91.2991C437.498 90.3541 436.928 88.8291 437.203 87.3341C437.478 85.8391 438.553 84.6191 439.998 84.1541Z" fill="black"/>
<path d="M312.342 80.6839C316.268 80.6839 321.862 79.8139 323.775 83.7289C323.622 86.1939 323.864 85.2739 322.191 87.4389C323.919 90.0539 324.262 90.0539 324.114 93.0939C320.932 96.5739 316.89 95.4289 312.381 95.2289C312.465 90.3789 312.452 85.5289 312.342 80.6839Z" fill="white"/>
<path d="M85.2754 95.2299L97.7034 95.2148L97.6384 106.66L85.3274 106.785L85.2754 95.2299Z" fill="white"/>
<path d="M101.834 95.2402L114.321 95.2952L114.228 106.75L102.114 106.765L101.834 95.2402Z" fill="white"/>
<path d="M85.3182 79.2402L97.5672 79.3203C97.6957 83.0403 97.6367 87.0502 97.6527 90.7952L85.2402 90.7653L85.3182 79.2402Z" fill="white"/>
<path d="M185.652 95.1949L197.708 95.1699L197.713 106.76L185.714 106.75L185.652 95.1949Z" fill="white"/>
<path d="M185.712 79.2402H197.796L197.747 90.6902L185.625 90.7752L185.712 79.2402Z" fill="white"/>
<path d="M102.056 79.3301H114.436C114.38 83.1251 114.373 86.9201 114.415 90.7151L101.939 90.8251C102.082 87.1101 102.03 83.0701 102.056 79.3301Z" fill="white"/>
<path d="M168.795 79.3047L181.131 79.3397C181.142 83.2297 180.968 86.8797 180.78 90.7747L168.863 90.7597L168.795 79.3047Z" fill="white"/>
<path d="M168.863 95.2285L180.731 95.2635C180.76 99.0835 180.768 102.909 180.755 106.734H168.926L168.863 95.2285Z" fill="white"/>
<path d="M493.729 80.3594C495.369 82.2294 499.144 92.0694 499.144 94.9094C497.444 96.0544 494.929 93.3544 493.514 92.4294C492.399 92.3994 491.474 92.3744 490.744 92.3594L490.104 92.4744C488.624 94.4694 489.394 94.4194 487.189 95.6644C485.349 95.5244 485.974 95.9244 484.889 94.9394C486.284 90.7644 487.774 85.6794 490.069 81.9094C490.989 80.3994 492.019 80.6144 493.729 80.3594Z" fill="white"/>
<path d="M332.843 80.4835C334.964 80.6685 334.624 80.3135 335.995 81.4335C337.602 85.7785 334.816 90.0585 338.186 92.1035C340.407 92.1185 339.445 92.4085 341.242 91.4385C343.497 87.6285 339.595 83.1835 343.262 80.3535L344.227 80.5235C345.742 81.9185 345.247 81.0635 345.552 83.2835C345.527 86.8985 345.052 98.6335 337.287 96.2085C332.002 94.5585 332.623 85.3485 332.843 80.4835Z" fill="white"/>
<path d="M511.063 80.2852C513.873 80.4352 517.738 80.7951 518.313 84.3301C516.988 84.9601 513.813 84.0652 511.788 83.8202L511.478 84.3351C514.028 87.8951 524.753 89.7802 515.108 95.4802C512.318 95.9152 509.953 95.6302 508.068 93.3452C507.673 91.4202 507.543 92.2802 508.138 90.6552C510.818 90.5902 511.673 93.2202 514.388 92.0602L514.678 91.1802C511.923 87.6402 502.213 86.8902 511.063 80.2852Z" fill="white"/>
<path d="M413.277 80.6153C416.292 80.6253 423.047 80.4702 425.747 80.8952C426.537 82.2052 426.257 81.5053 426.307 83.1153L425.662 83.6103C424.122 83.5703 423.602 83.5153 422.057 83.7453C421.392 85.5103 421.667 89.6503 421.697 91.7403C421.767 93.7553 421.842 94.4303 420.782 95.9253C419.207 96.0153 419.982 96.1553 418.462 95.1553C417.557 92.2053 418.597 84.9503 417.247 83.6353C415.807 83.7353 415.422 83.8852 414.067 83.3952L413.277 80.6153Z" fill="white"/>
<path d="M383.223 80.4652C386.278 80.5252 393.953 80.1051 395.668 81.7051C395.763 83.3901 396.033 82.7202 395.028 83.8602C393.693 83.7602 392.923 83.5952 391.638 84.0052C390.898 85.7652 391.253 90.2152 391.303 92.3602C391.378 93.6002 391.288 93.9102 391.103 95.1552C389.613 95.9852 390.388 95.8102 388.693 95.7002C386.903 93.7252 387.923 87.4702 387.633 84.0152L387.018 83.5202C385.658 83.5952 384.628 83.8452 383.543 83.1152L383.223 80.4652Z" fill="white"/>
<path d="M525.834 80.7803C527.979 80.6753 535.974 80.5153 537.699 80.9003C538.824 82.2103 538.609 81.4903 538.509 83.0853L537.779 83.6903C536.184 83.6303 535.889 83.5853 534.264 83.8403C533.634 85.2053 533.889 88.9953 533.904 90.7103C534.024 93.0903 534.424 94.0804 533.229 95.6404C531.489 95.6754 532.119 96.0003 531.049 95.1203C530.354 92.4403 530.544 87.3853 530.374 84.2453C528.749 82.7353 528.819 84.6453 526.329 83.2353L525.834 80.7803Z" fill="white"/>
<path d="M468.763 80.4141C469.448 80.4991 471.303 80.5291 471.583 81.0141C473.038 83.5391 472.293 89.4391 472.253 92.2991C474.088 92.2291 475.228 92.154 477.043 92.334C478.368 93.574 477.953 93.1041 478.188 95.4241C475.783 95.6891 471.308 95.619 468.713 95.644L468.763 80.4141Z" fill="white"/>
<path d="M368.114 80.4844L370.309 80.7244C373.269 83.7544 369.904 90.5944 372.294 92.4944C373.939 92.3544 374.099 92.3294 375.729 92.5294C377.089 93.7894 376.669 93.2544 376.879 95.6244L367.819 95.6094C367.814 90.5044 367.769 85.5894 368.114 80.4844Z" fill="white"/>
<path d="M354.858 80.4043C355.908 80.5343 356.378 80.6593 357.408 80.9243C359.018 83.3993 358.253 92.5343 358.208 95.9643L355.738 95.6093C353.718 93.2293 354.698 84.0593 354.858 80.4043Z" fill="white"/>
</svg>
